<svg viewBox="0 0 1080 1080" xmlns="http://www.w3.org/2000/svg" style="">
  <path fill="none" stroke="#000000d6" d="M608,186L616,110L345,196L703,39L263,280L425,105L517,82L288,257L252,323L529,93L342,174L1008,118L207,147L1051,126L349,32L868,277L767,268L728,138L787,340L733,830L467,1020L301,646L373,875L353,750L323,821L403,804L413,809L558,1032L294,666L452,853L378,976L577,814L575,940L544,928L738,722L495,1020L732,640L251,959L706,919L656,748L657,856L503,918L507,972L791,687L681,806L617,669L639,914L623,869L572,859L225,858L726,880L134,965L660,916L498,939L688,826L552,917L457,994L454,865L455,928L707,832L677,855L391,934L621,823L472,987L578,861L592,840L669,820L237,900L671,912L461,942L483,898L575,945L253,628L764,1014L1061,1024L371,853L690,929L180,902L640,894L563,900L537,984L612,647L718,844L485,928L527,865L704,765L589,803L386,977L600,972L572,934L404,913L735,923L435,901L772,865L623,662L418,991L792,723L557,960L786,659L681,877L604,970L641,862L511,885L727,867L565,893L594,837L647,977L366,866L305,755L359,771L763,807L589,853L619,858L457,937L655,952L508,920L390,929L546,1004L702,802L517,964L744,711L577,1011L422,907L453,951L704,825L449,1021L372,745L156,1025L218,970L827,755L365,946L717,847L614,684L605,1009L447,893L332,732L322,822L564,872L621,995L453,944L386,930L656,827L508,986L338,879L408,949L496,918L779,675L467,891L464,863L634,909L537,951L387,803L336,758L669,998L220,889L493,696L335,743L428,725L651,680L578,966L390,866L488,949L433,818L609,961L137,978L141,989L103,1019L706,800L658,837L738,813L494,871L467,960L765,698L644,826L613,859L547,772L1033,1012L336,826L433,836L451,897L792,855L477,762L499,1012L355,812L420,718L281,790L803,948L984,961L910,994L847,921L965,931L98,957L260,1037L815,787L15,1053L309,1027L650,694L486,971L449,839L480,909L590,755L687,937L754,677L798,434L763,272L790,155L500,56L374,169L896,119L168,221L612,111L827,278L361,37L291,331L651,12L825,368L729,153L214,55L829,165L239,107L807,142L436,158L291,213L760,42L518,136L341,179L477,76L738,56L351,177L820,128L399,107L547,89L265,247L516,139L728,114L643,108L498,60L855,223L372,3L608,177L506,87L363,135L826,45L740,801L632,901L438,972L405,819L396,903L358,856L566,982L540,940L482,952L345,831L293,654L435,980L350,874L573,1016L602,915L41,992L159,1061L728,819L661,699L483,997L470,698L86,996L337,1020L628,820L226,1079L588,928L475,928L344,748L351,870L614,996L392,871L787,851L757,827L588,758L1004,986L1017,1062L861,864L916,1068L899,922L980,1071L829,938L753,1020L973,1040L643,739L834,950L846,907L1012,1046L680,743L501,1001L707,872L611,939L296,709L641,915L643,812L343,920L435,689L676,886L277,997L442,707L298,1001L768,760L281,952L597,873L512,996L337,783L428,701L401,873L555,856L732,789L335,1045L707,924L369,842L438,878L397,904L436,829L276,750L635,818L13,1055L207,1013L546,915L734,749L647,856L649,700L646,733L637,726L691,776L472,964L647,994L261,691L491,897L374,837L584,1064L641,700L723,820L725,767L585,875L569,777L502,1010L552,783L315,1024L673,769L480,1000L587,943L393,970L34,1053L371,1042L443,794L368,820L337,871L290,660L426,908L291,742L281,309L535,51L360,168L409,113L324,144L368,191L674,42L368,239L276,287L282,238L365,203L478,90L761,163L798,170L413,126L253,374L381,149L541,76L159,431L660,3L310,148L403,307L164,266L745,121L661,104L495,75L285,208L290,598L301,202L428,212L468,147L288,259L279,324L510,127L612,62L320,221L386,209L191,255L453,56L532,137L462,172L457,6L755,215L338,18L847,142L701,958L1028,1078L725,811L959,969L933,999L630,707L1048,1063L357,874L355,750L496,924L721,736L746,809L725,755L476,692L547,661L664,814L312,765L603,673L575,718L1000,995L293,770L385,932L447,880L373,698L954,857L336,963L429,821L138,969L79,984L203,986L126,1066L292,873L365,751L300,990L78,948L390,831L295,681L283,360L239,168L439,144L805,36L177,247L944,138L264,141L645,144L608,127L360,31L257,625L333,233L313,259L662,106L535,102L376,99L553,78L483,83L389,144L291,286L279,448L341,81L516,116L740,192L605,151L800,174L532,83L582,65L679,192L753,150L583,47L812,306L724,826L660,814L777,826L161,932L143,1013L202,951L151,1006L161,1031L224,1062L626,889L589,992L636,878L264,899L251,942L767,764L552,989L528,950L125,991L675,972L554,885L367,859L287,557L344,859L458,879L193,893L307,1077L6,1069L94,1052L185,916L181,1006L212,916L228,997L493,650L336,882L613,900L603,964L650,847L81,1046L221,960L116,1052L218,979L498,682L770,711L573,985L661,730L1021,1062L1016,962L540,803L881,885L791,971L888,1054L807,969L17,1013L307,1022L335,1070L448,890L317,759L439,870L797,731L68,1004L655,778L795,834L77,935L147,1063L449,760L378,860L656,938L380,795L508,1022L702,783L774,649L808,127L464,48L540,86L519,50L289,226L275,386L251,302L396,123L221,331L497,77L493,174L292,130L808,205L403,70L254,369L362,253L422,178L322,161L247,458L1052,1047L735,988L902,1019L788,811L197,1067L145,1037L295,1057L84,1035L279,982L37,1039L176,966L528,654L882,916L666,746L557,797L376,912L360,724L415,881L302,668L411,824L635,977L692,805L631,921L678,816L528,1009L427,929L419,684L427,980L696,978L356,939L433,758L429,860L143,1072L413,1049L307,690L481,999L328,705L702,711L950,1065L875,967L798,897L767,1047L972,1004L978,1048L797,888L940,1009L1069,1065L840,1074L951,1050L899,1032L772,975L899,956L654,749L633,738L560,726L908,902L1032,1078L788,1038L810,1053L1071,1036L849,1075L626,667L397,707L427,895L462,765L682,932L102,990L56,1076L163,1029L279,963L346,713L621,644L301,1043L378,1012L76,1035L556,659L927,1060L830,1069L914,945L790,864L938,946L619,745L190,1007L826,642L368,998L92,960L421,1006L237,1073L303,1001L195,1014L326,897L779,711L436,929L689,917L554,987L585,912L614,951L505,976L416,945L325,784L419,921L283,662L490,869L593,835L566,847L383,822L455,823L620,890L772,660L785,590L534,1038L591,933L756,756L530,665L536,662L561,696L937,959L704,764L591,950L1008,1023L789,979L859,895L633,737L656,740L1054,1024L878,1076L870,1011L883,938L776,1049L692,1074L1066,1057L797,1043L985,899L733,1020L794,305L544,41L576,205L728,68L699,188L786,225L838,218L767,461L777,176L799,421L741,110L472,67L379,176L247,467L353,224L464,112L573,132L797,71L544,101L344,153L996,175L361,50L338,240L265,450L365,928L684,988L1007,951L966,992L845,931L137,1028L522,864L426,846L355,812L499,835L549,992L548,976L0,1035L461,1054L146,985L490,1069L9,1054L334,979L287,882L108,1054L636,962L627,880L540,952L772,686L703,785L475,1036L61,1031L200,957L420,873L359,743L573,691L732,862L190,969L280,1049L714,858L533,652L175,954L47,969L35,998L104,1056L78,945L189,1063L761,1075L998,979L845,924L1056,1065L936,936L512,957L507,900L476,919L289,680L295,166L374,262L464,1032L690,901L662,859L627,691L660,749L579,694L736,756L574,957L685,905L0,1047L103,1035L584,1008L659,686L33,1058L383,1008L546,770L516,914L316,809L458,839L366,1035L397,1031L89,941L94,1053L1,1061L202,1072L405,1059L288,1067L380,1023L112,932L45,1054L495,1056L115,1026L274,1064L328,1059L532,1079L531,1074L320,1043L322,1013L218,1022L139,981L216,930L410,1054L330,801L348,723L267,1011L195,1054L183,1035L390,1063L508,782L62,1030L699,752L396,793L548,768L428,812L425,691L383,866L288,737L360,821L503,681L628,693L646,779L642,712L703,763L1009,1075L739,1022L1072,1003L710,946L233,867L771,714L761,633L790,521L502,946L14,1039L328,910L304,654L322,664L454,961L473,940L318,766L704,905L478,904L753,807L663,719L668,929L642,922L765,727L606,924L729,713L323,1078L295,1020L109,1036L229,1038L127,1076L225,1008L196,1051L357,959L424,727L607,650L979,1025L1012,1047L719,1038L986,896L82,1004L48,997L166,1022L323,1048L540,1072L348,1056L404,1061L93,1070L506,675L478,730L370,746L523,709L657,704L653,723L940,1015L904,1079L385,1069L379,1063L815,1062L1074,1012L950,984L564,768L941,1069L810,921L380,840L306,782L508,676L739,733L412,670L657,704L325,739L588,1029L564,694L614,682L460,662L476,688L629,717L478,881L630,935L275,1074L88,1069L682,929L563,937L386,927L507,763L6,1019L69,1069L212,966L723,840L636,906L368,776L504,968L625,959L28,990L253,951L418,705L294,810L564,773L153,1027L251,1067L281,967L166,922L171,967L94,966L188,897L265,896L87,972L289,848L382,764L542,661L39,1029L294,883L42,989L397,912L449,889L176,1051L541,731L752,720L393,862L640,923L543,1001L389,904L808,738L62,997L79,1065L999,1061L762,871L469,869L506,1023L1038,1077L453,917L621,701L668,708L574,685L930,1072L892,1066L844,1014L638,688L881,943L1038,988L677,1054L937,918L58,1053L107,967L314,890L733,834L561,775L505,909L117,1044L65,1050L255,881L104,1040L55,1053L553,995L344,921L156,911L959,957L1077,1053L774,1068L922,949L569,830L361,850L370,786L513,851L990,1022L709,1024L766,1044L1005,1058L922,981L979,1030L683,1056L708,1065L386,1079L404,1050L110,938L573,961L766,830L781,845L674,765L971,1047L754,1049L915,991L972,996L792,996L782,844L505,1004L346,883L351,674L264,1021L561,842L380,848L21,1037L117,954L1,1068L202,859L760,861L1012,980L1052,1014L983,931L910,964L530,674L360,766L490,649L382,730L354,1062L138,1076L990,1033L826,969L967,976L742,1012L857,881L252,698L544,959L396,970L452,809L67,973L574,716L919,1073L873,1011L354,861L593,1011L316,806L541,683L665,687L423,699L548,678L417,667L470,794L9,998L191,1075L368,1017L156,925L462,824L710,855L625,718L681,876L509,1064L0,1037L246,1075L205,1045L66,997L263,1073L334,1054L338,970L688,871L787,525L791,474L772,607L784,569L719,833L815,259L602,62L444,126L534,166L270,248L447,217L396,70L452,158L669,98L613,161L579,19L251,268L371,222L826,30L569,136L792,58L301,119L645,58L78,222L897,160L474,38L275,194L604,29L425,153L519,61L487,59L771,179L840,321L649,72L768,181L781,219L699,108L705,108L699,180L787,383L662,434L807,248L800,440L792,108L663,526L710,337L639,57L697,81L502,141L357,162L267,320L298,510L301,400L325,92L624,148L553,36L351,116L651,137L184,140L525,113L811,240L764,265L691,137L648,115L703,173L593,141L663,106L351,202L254,447L445,45L640,174L651,48L430,87L320,174L316,244L355,243L292,304L402,58L332,166L274,227L278,375L290,607L552,1077L237,1070L606,924L340,741L590,808L953,977L754,1028L883,1046L735,986L92,967L718,936L842,93L510,809L660,779L359,915L239,264L340,426L248,336L445,57L256,406L411,1041L35,1011L311,1020L692,852L474,905L703,828L548,958L603,964L540,1030L442,679L1031,969L587,834L397,991L276,967L332,665L583,1041L764,642L835,39L738,827L591,995L866,489L595,998L542,956L578,928L115,945L724,872L414,764L396,902L372,948L868,1050L981,941L930,928L1068,1075L949,915L961,1073L709,811L1030,957L653,787L550,686L763,767L581,1045L1073,1023L622,1079L663,1070L799,991L417,953L316,759L612,665L520,731L699,930L597,710L660,868L523,876L607,1003L644,949L290,709L432,842L340,818L341,735L576,807L604,980L745,729L847,27L777,536L781,464L629,75L819,286L712,150L845,263L799,380L771,22L408,132L735,86L548,118L738,131L567,163L143,39L746,255L851,249L421,151L628,20L165,367L503,104L757,109L820,482L718,170L803,226L820,201L775,197L817,205L758,236L175,2L972,204L401,53L940,284L499,45L296,279L636,35L900,410L608,58L801,237L738,800L104,1061L415,818L130,1053L123,1072L837,1068L954,1009L806,1071L721,1036L802,1064L857,871L830,991L940,910L831,1017L804,921L166,1010L164,967L328,895L882,994L704,1058L1026,938L734,1052L379,899L307,624L493,1065L124,963L158,974L56,1019L809,700L425,693L147,1050L529,630L223,969L506,654L503,708L377,848L378,935L552,823L518,771L144,1079L30,981L46,1072L977,1070L625,771L1040,993L884,927L341,724L721,730L571,855L565,646L629,1026L325,832L502,640L494,733L434,677L724,719L421,716L568,692L1022,994L817,1009L960,1047L796,871L791,867L767,1060L880,867L1025,980L1053,1046L583,1062L627,673L546,776L1008,958L770,961L811,964L812,904L303,787L277,73L704,106L652,97L330,149L290,505L322,1045L285,927L313,1007L108,1042L240,1013L740,737L263,1005L568,937L526,946L734,711L524,943L299,1053L203,1042L1032,1053L1032,961L579,742L563,686L913,977L859,1022L1059,1039L920,1052L1018,1070L808,933L842,935L907,980L942,1049L744,949L1034,990L547,692L921,972L703,1054L788,1012L916,1006L1010,968L617,805L507,968L671,928L682,739L648,781L510,959L295,746L404,974L599,974L723,880L490,995L276,682L980,983L814,1010L1048,991L921,1026L743,942L293,689L322,712L362,903L95,976L22,970L136,1055L276,1065L826,834L8,1079L93,1024L494,1067L146,1003L382,1060L389,1048L353,997L592,943L103,971L305,876L497,973L116,1079L252,983L424,748L278,669L534,942L665,969L170,1000L275,842L130,1079L273,1028L451,1057L662,744L595,700L1015,1064L987,939L255,982L546,908L653,960L695,846L576,980L529,918L410,749L321,1073L627,684L854,922L492,998L687,878L375,782L584,892L538,872L582,1021L748,789L800,315L453,107L620,71L475,94L398,213L332,258L307,299L242,379L1021,555L262,1037L480,1050L89,1017L519,661L751,722L787,650L530,1064L665,708L535,1009L742,702L425,989L656,670L899,1050L1016,1042L893,974L729,961L619,659L771,829L779,271L791,326L528,49L734,113L800,491L680,48L334,231L676,61L658,186L238,137L984,175L526,53L648,71L730,90L354,232L479,53L388,161L486,116L782,192L749,199L595,76L747,204L699,74L454,41L772,137L775,767L665,743L780,692L645,988L672,714L41,1025L151,991L473,1079L262,990L464,792L728,706L507,734L285,1039L752,834L294,894L379,860L658,960L314,1059L68,1050L49,1012L711,774L672,933L319,812L443,1009L466,931L604,958L414,950L363,801L5,1035L56,972L218,1049L26,1052L870,1078L443,903L421,777L138,1064L99,1063L453,886L325,1036L382,983L321,695L1079,1042L516,801L34,993L94,940L270,1070L710,1079L908,959L1063,1053L915,938L373,713L671,702L301,725L530,715L315,841L309,605L383,1079L338,975L347,998L188,1060L649,875L667,914L205,906L213,1006L517,670L1072,1037L810,996L41,935L421,1016L666,795L964,1045L772,1068L772,996L401,969L378,766L494,723L406,641L854,995L273,963L359,972L82,952L492,797L496,661L412,766L553,795L245,1072L414,688L137,1044L146,915L333,1079L327,1071L676,944L1054,1066L931,1052L1016,976L753,1011L991,911L822,986L522,615L138,994L171,1001L86,993L436,832L429,687L434,847L460,857L951,1032L987,1077L956,988L723,1051L840,1067L655,1069L828,963L137,925L272,1033L189,1054L270,1051L170,1063L471,1015L574,961L631,954L705,878L830,274L823,247L771,378L727,190L837,226L780,238L647,89L193,298L398,223L701,2L318,267L880,77L360,102L355,271L668,50L495,93L387,116L633,35L823,287L511,82L229,284L303,334L344,107L798,76L770,432L765,814L799,175L818,353L773,66L259,240L270,354L534,67L753,125L818,327L773,437L670,117L899,409L151,444L469,23L253,483L349,240L287,254L291,271L751,32L512,195L743,40L304,198L359,172L501,128L340,269L246,407L367,113L392,99L369,169L286,328L261,386L484,88L833,291L782,376L779,390L784,295L847,232L741,238L828,321L609,14L454,85L471,86L641,153L285,179L612,136L679,178L526,64L845,186L739,672L530,1052L210,1039L485,828L77,979L243,885L484,686L583,678L1025,1079L842,1037L226,628L1003,1073L899,892L380,900L366,826L90,1031L173,1019L61,1004L266,923L475,682L395,916L80,961L72,1065L297,1003L327,1032L206,1052L21,955L546,931L1070,1028L1070,1074L987,1062L1070,1068L897,980L860,1023L873,945L920,878L85,937L588,913L1058,1009L995,1050L876,1028L742,941L792,246L765,271L325,51L894,233L610,443L996,329L390,75L372,137L428,172L489,57L889,345L612,78L748,199L419,112L472,47L249,344L429,164L274,255L409,192L697,91L452,70L459,61L291,228L378,83L598,92L642,191L844,410L607,408L666,421L835,370L721,350L692,68L815,282L769,115L347,198L275,233L259,306L412,353L452,430L255,264L384,80L369,186L185,365L626,54L706,184L481,119L690,125L752,170L793,580L536,14L802,288L688,545L937,76L266,229L433,85L288,294L322,182L992,135L313,854L287,323L372,164L227,686L917,1072L819,912L352,813L458,652L199,970L331,852L308,720L833,722L204,978L85,1013L28,1070L181,907L345,831L502,995L342,860L467,948L556,808L757,726L726,799L364,1070L267,1025L74,954L622,708L531,718L141,1054L158,959L97,966L288,1056L512,1069L259,976L1075,1032L967,897L892,1017L1006,1033L844,1014L950,991L902,983L1033,959L375,852L299,706L292,491L1017,1034L637,711L949,988L783,1057L791,1058L241,1056L79,972L140,924L29,992L377,1041L637,677L552,745L694,866L661,827L574,688L1036,1007L953,992L446,941L288,926L452,1066L318,1070L778,1077L642,1071L948,981L883,1028L736,998L908,878L405,1041L307,707L482,1004L795,668L641,952L243,1062L327,874L30,1016L145,1038L299,1078L864,1052L857,1026L939,1035L817,1023L900,1058L1001,1069L758,1073L952,855L918,1058L571,1053L740,681L599,993L598,1004L391,1003L57,974L246,1000L570,839L681,872L636,694L634,801L557,657L569,966L198,1022L462,1030L584,880L369,889L43,1077L595,1074L817,340L831,162L779,597L748,715L506,674L558,681L317,797L253,152L737,152L774,181L582,197L408,11L383,245L736,42L724,337L822,271L766,419L634,480L858,307L716,141L688,157L927,469L312,466L884,398L607,438L850,288L769,289L818,368L401,15L263,434L276,301L328,1031L319,862L445,839L394,791L124,1070L39,1026L223,1062L48,1021L357,973L258,1079L85,1075L176,974L109,951L548,685L714,775L162,957L220,877L364,1017L307,699L457,849L487,876L672,947L368,880L347,745L1059,960L795,1030L748,1026L886,1071L1009,976L848,985L773,966L727,1043L177,883L770,1062L223,1079L642,839L1050,1041L304,1078L742,857L315,705L371,897L579,993L778,679L797,224L706,205L831,239L654,300L574,17L742,297L726,55L352,138L522,38L280,184L301,414L297,259L351,163L484,151L530,117L499,142L407,165L361,126L247,361L501,175L692,148L801,345L661,480L813,227L820,346L750,708L330,884L605,864L70,994L469,916L347,774L231,957L418,1010L644,928L81,1045L968,1060L1014,944L277,1044L173,1066L340,1031L636,695L463,879L647,896L628,957L742,822L370,749L191,1052L363,861L598,763L321,800L708,762L650,706L644,988L645,789L597,667L681,936L582,920L453,717L364,846L306,692L275,452L393,157L395,106L314,202L350,386L284,118L304,744L278,171L674,37L612,207L698,125L442,71L456,107L261,327L336,191L524,148L745,200L817,333L635,503L741,170L674,35L279,179L405,99L380,204L247,381L324,255L614,51L232,229L501,140L347,70L655,143L877,387L619,77L264,288L457,176L910,214L378,48L230,513L902,1060L75,1068L73,1022L195,1001L340,1028L696,858L348,752L627,674L235,754L1046,985L715,1055L829,915L903,995L1010,998L968,1070L1054,980L826,1027L490,752L685,876L710,828L785,540L791,264L644,103L703,111L393,102L238,509L829,371L496,44L871,262L259,9L308,896L247,5L813,287L671,36L833,291L504,50L789,296L815,290L824,331L714,413L796,273L803,395L696,56L456,130L380,159L474,132L238,262L370,271L291,290L298,527L222,99L766,183L585,152L399,139L437,138L561,122L400,153L282,391L289,445L270,267L327,168L719,103L438,146L213,298L503,86L388,224L319,177L528,71L451,152L336,69L841,239L728,174L673,100L482,49L769,87L431,107L499,113L557,185L806,936L924,908L953,985L729,922L776,624L676,919L433,1019L673,945L789,555L722,770L820,271L783,183L717,869L815,190L667,145L732,221L885,290L644,426L920,227L307,123L816,144L719,466L276,369L310,238L285,589L379,1013L658,987L633,710L593,718L600,675L708,865L479,1015L669,910L489,829L308,710L583,654L654,978L770,652L745,863L811,164L385,148L360,268L226,254L711,82L408,67L790,146L637,297L812,226L751,364L783,219L225,96L994,125L201,944L299,832L738,751L426,623L629,1079L107,1066L462,1048L90,971L117,1025L301,917L257,1024L10,1023L30,995L268,967L647,978L797,610L360,1049L177,1065L272,902L615,918L775,660L746,681L803,166L664,68L545,76L698,62L755,237L799,222L783,260L723,125L308,129L545,107L339,141L267,352L352,252L650,45L819,193L739,308L758,840L922,977L804,1053L768,992L800,889L1010,979L833,941L888,1069L829,890L870,940L996,981L857,989L826,897L822,1008L887,873L909,1001L679,1066L725,1031L783,478L644,403L843,378L743,404L755,151L823,382L595,499L902,254L295,66L886,100L416,170L702,117L728,179L789,317L271,902L481,605L266,246L675,96L724,170L823,312L747,179L615,43L716,181L800,161L683,88L878,277L611,21L278,183L291,511L301,104L548,163L414,157L257,386L799,480L677,1027L292,751L596,920L131,915L265,1073L606,942L694,882L333,830L381,755L304,809L528,656L642,821L663,785L735,741L793,622L91,944L92,940L499,1067L340,986L402,983L507,842L416,781L268,620L452,817L984,972L1038,1061L951,1011L357,718L516,957L37,1048L22,947L198,1049L578,900L603,819L481,973L411,712L163,957L823,692L390,686L624,729L617,1031L945,1059L702,798L660,891L1045,1020L965,975L418,677L384,957L1057,997L897,900L720,1074L824,908L1054,1023L937,962L485,664L754,791L542,716L421,1076L165,1064L386,736L399,714L614,809L464,656L562,993L60,1071L553,1008L16,980L211,886L262,989L333,734L701,887L773,636L615,936L566,596L707,807L629,942L881,1027L789,857L95,924L357,1023L598,980L729,776L588,697L983,1009L716,1075L785,477L820,245L757,250L618,528L807,319L828,210L524,37L829,268L731,561L10,1058L586,1076L662,881L1042,1004L777,871L465,764L1071,972L463,982L162,1055L341,950L673,825L373,881L539,650L451,766L469,894L312,770L565,638L877,965L888,1023L742,1079L20,1034L460,714L459,671L262,1052L438,651L165,986L294,940L298,217L267,305L246,338L404,400L331,493L390,397L701,494L765,400L744,118L649,175L714,114L535,157L419,123L469,175L830,24L129,351L426,188L751,170L558,172L822,139L696,477L699,506L772,160L822,364L749,143L509,20L430,99L209,379L484,36L704,80L841,296L769,186L579,167L281,20L300,555L272,234L638,126L833,293L525,34L877,335L743,278L844,207L740,301L464,875L457,657L428,783L392,819L1069,1036L860,848L4,989L59,1001L443,931L41,1014L487,771L931,907L329,718L315,768L758,816L868,1061L509,754L1075,1022L837,914L800,1046L978,1054L1053,935L147,920L403,817L416,774L441,854L288,683L440,1048L303,1007L331,645L698,736L649,738L461,805L12,984L248,911L341,809L318,787L476,1016L442,922L490,675L300,777L273,156L403,234L285,243L515,74L481,111L941,207L274,61L661,94L717,177L800,289L783,341L683,459L811,181L412,96L513,26L755,108L307,164L533,44L308,269L257,330L260,340L282,205L270,414L696,424L824,224L695,167L516,30L440,55L881,335L649,103L502,111L973,228L623,83L495,34L345,204L625,159L430,33L799,218L834,284L798,399L729,964L53,1064L369,1022L14,1043L74,985L261,1048L94,967L515,1073L288,1030L348,921L1067,1012L639,1064L94,1076L602,987L40,1001L623,758L225,1018L510,826L625,798L335,932L83,1078L53,1036L83,1045L404,1052L285,555L378,79L499,62L207,473L543,78L559,66L858,293L671,104L324,150L629,137L301,94L594,38L722,167L810,212L568,103L793,200L781,300L692,138L815,206L824,300L374,3L656,158L285,123L265,358L491,524L289,1066L347,939L140,911L62,983L359,1024L697,768L530,659L353,768L466,826L598,1002L65,990L193,1039L466,1061L352,958L268,364L336,173L273,595L371,825L658,894L565,794L87,1072L598,823L1032,1052L949,1033L957,1036L552,798L456,677L461,657L423,740L652,620L501,888L463,659L329,958L264,271L470,90L702,156L637,155L780,148L736,337L842,255L525,111L514,42L199,323L578,34L180,229L629,6L187,314L370,219L354,168L280,204L411,146L645,149L288,200L308,821L122,1044L387,751L298,720L661,637L222,754L1033,993L755,1047L784,315L662,80L403,114L370,99L265,276L367,302L256,305L422,14L718,102L681,73L695,136L304,253L515,33L638,207L551,19L771,356L682,410L666,394L731,566L174,931L536,653L811,847L1018,1066L813,924L808,1029L757,1023L450,994L1073,1044L527,655L80,992L9,1003L80,993L748,1019L577,760L262,874L260,1075L1058,1015L833,900L240,299L797,66L450,111L411,150L226,452L397,226L601,43L850,269L467,40L615,58L749,98L543,38L818,160L569,166L791,165L514,64L736,157L495,44L278,344L542,50L531,92L239,358L345,48L409,263L358,224L395,132L294,257L295,314L286,1067L43,1065L821,1072L741,940L187,972L677,922L679,853L689,921L549,907L376,941L289,620L321,79L364,449L643,991L601,906L619,1005L698,857L677,904L653,732L1063,1050L934,1039L944,1058L475,973L1072,1064L755,913L1035,1058L796,942L745,1020L868,935L808,1033L890,856L987,988L1055,964L1054,1034L813,1020L795,1061L875,1008L1055,1027L847,866L1040,1061L1071,990L869,1013L833,847L365,1032L658,974L751,756L406,704L410,1046L634,941L684,844L633,1005L305,737L338,823L898,1021L743,1064L873,1066L56,1078L45,936L98,1057L174,965L460,792L427,792L167,909L142,968L234,988L407,975L324,675L619,1046L247,600L521,1005L652,989L583,963L762,753L475,707L435,907L386,739L503,680L624,639L579,724L512,946L659,933L528,770L780,824L346,1016L516,987L668,712L527,733L771,710L812,100L512,54L331,275L322,259L410,66L340,226L284,304L252,352L414,87L354,174L318,376L419,130L418,173L242,247L674,27L840,430L71,387L825,455L545,56L438,64L530,254L423,16L323,293L319,252L422,130L264,309L328,337L277,107L812,156L779,630L723,390L610,567L802,387L607,506L794,240L765,153L768,236L303,93L371,229L358,235L239,410L463,33L311,285L586,107L700,70L802,217L837,242L539,90L747,215L814,321L835,338L380,34L272,347L363,239L434,249L344,1064L474,666L478,743L782,1009L861,1056L829,1012L770,1061L1020,1076L594,1074L770,632L729,704L494,792L298,743L516,668L681,826L985,937L754,993L398,716L642,910L1069,1067L304,933L618,1013L711,852L683,777L668,817L1073,1007L764,823L861,986L946,916L784,928L789,1012L541,661L471,689L1018,971" class="vRBelwtA_0"></path>
<style data-made-with="vivus-instant">.vRBelwtA_0{stroke-dasharray:791443 791445;stroke-dashoffset:791444;animation:vRBelwtA_draw 2500ms linear 0ms forwards;}@keyframes vRBelwtA_draw{100%{stroke-dashoffset:0;}}@keyframes vRBelwtA_fade{0%{stroke-opacity:1;}94.44444444444444%{stroke-opacity:1;}100%{stroke-opacity:0;}}</style></svg>
